<svg viewBox="0 0 549 311" xmlns="http://www.w3.org/2000/svg">
<path d="M89.5825 238.366C85.1656 238.366 81.0903 237.39 77.4543 235.438C71.5976 237.39 65.3017 238.366 58.7374 238.366C43.2904 238.366 29.9177 232.802 18.9609 221.845C8.00403 210.888 2.4646 197.516 2.4646 182.069V120.403C2.4646 104.956 8.02843 91.5833 18.9609 80.6265C29.9177 69.6697 43.3148 64.1058 58.7374 64.1058C65.6921 64.1058 72.2321 65.2284 78.1864 67.449C81.9444 65.2284 85.7512 64.1058 89.5825 64.1058C96.5372 64.1058 102.589 66.6193 107.543 71.5975C112.594 76.5512 115.181 82.6031 115.181 89.5579V212.914C115.181 219.625 112.228 225.701 106.396 230.972C100.93 235.877 95.2683 238.366 89.5581 238.366H89.5825ZM58.7374 115.156C57.2732 115.156 56.1019 115.644 55.0526 116.694C54.0032 117.743 53.5152 118.914 53.5152 120.379V182.044C53.5152 183.509 54.0032 184.68 55.0526 185.729C56.1019 186.779 57.2732 187.267 58.7374 187.267C60.2015 187.267 61.3729 186.779 62.4222 185.729C63.4715 184.68 63.9596 183.509 63.9596 182.044V120.379C63.9596 118.914 63.4715 117.743 62.4222 116.694C61.3729 115.644 60.2015 115.156 58.7374 115.156Z" fill="white"/>
<path d="M151.102 238.366C144.147 238.366 138.096 235.853 133.142 230.874C128.164 225.896 125.65 219.869 125.65 212.914V28.0387C125.65 21.3523 128.603 15.2273 134.411 9.85866C139.779 4.9293 145.392 2.44022 151.102 2.44022C158.155 2.44022 164.255 4.9537 169.209 9.93186C174.187 14.91 176.701 20.9863 176.701 28.0631V212.938C176.701 219.649 173.748 225.725 167.916 230.996C162.572 235.901 156.91 238.39 151.078 238.39L151.102 238.366Z" fill="white"/>
<path d="M212.621 299.886C205.666 299.886 199.615 297.372 194.661 292.394C189.683 287.416 187.169 281.339 187.169 274.263V120.379C187.169 104.932 192.733 91.5592 203.69 80.6023C214.647 69.6455 228.019 64.0817 243.466 64.0817C258.913 64.0817 272.335 69.6455 283.389 80.5779C294.346 91.5348 299.91 104.932 299.91 120.379V182.045C299.91 197.492 294.346 210.864 283.414 221.821C272.359 232.778 258.913 238.342 243.491 238.342C241.734 238.342 239.977 238.269 238.269 238.147V274.263C238.269 281.071 235.316 287.196 229.484 292.467C224.139 297.372 218.478 299.861 212.646 299.861L212.621 299.886ZM243.442 115.157C241.978 115.157 240.806 115.645 239.757 116.694C238.708 117.743 238.22 118.915 238.22 120.379V182.045C238.22 183.509 238.708 184.68 239.757 185.729C240.806 186.779 241.978 187.267 243.442 187.267C244.906 187.267 246.077 186.779 247.127 185.729C248.176 184.68 248.664 183.509 248.664 182.045V120.379C248.664 118.915 248.176 117.743 247.127 116.694C246.077 115.645 244.906 115.157 243.442 115.157Z" fill="white"/>
<path d="M397.497 238.366C390.444 238.366 384.343 235.853 379.365 230.874C374.387 225.896 371.874 219.869 371.874 212.914V120.403C371.874 118.939 371.386 117.768 370.336 116.718C369.287 115.669 368.116 115.181 366.651 115.181C365.187 115.181 364.016 115.669 362.967 116.718C361.917 117.768 361.429 118.939 361.429 120.403V212.914C361.429 219.625 358.476 225.701 352.644 230.972C347.3 235.877 341.639 238.366 335.806 238.366C328.852 238.366 322.8 235.853 317.846 230.874C312.868 225.896 310.354 219.869 310.354 212.914V28.0387C310.354 21.3523 313.307 15.2273 319.115 9.85866C324.483 4.9293 330.096 2.44022 335.806 2.44022C342.859 2.44022 348.959 4.9537 353.938 9.93186C358.916 14.91 361.429 20.9863 361.429 28.0631V64.3256C363.162 64.2036 364.894 64.1304 366.651 64.1304C382.098 64.1304 395.52 69.6942 406.574 80.6267C417.531 91.5835 423.095 104.981 423.095 120.428V212.938C423.095 219.649 420.142 225.725 414.31 230.996C408.844 235.901 403.182 238.39 397.472 238.39L397.497 238.366Z" fill="white"/>
<path d="M520.682 238.366C516.265 238.366 512.189 237.39 508.553 235.438C502.697 237.39 496.425 238.366 489.836 238.366C474.39 238.366 461.017 232.802 450.06 221.845C439.103 210.888 433.539 197.516 433.539 182.069V120.403C433.539 104.956 439.103 91.5834 450.06 80.6265C461.017 69.6697 474.39 64.1058 489.836 64.1058C496.791 64.1058 503.331 65.2284 509.285 67.449C513.044 65.2284 516.85 64.1058 520.682 64.1058C527.636 64.1058 533.688 66.6193 538.642 71.5975C543.693 76.5512 546.28 82.6031 546.28 89.5579V212.914C546.28 219.625 543.327 225.701 537.495 230.972C532.029 235.877 526.367 238.366 520.657 238.366H520.682ZM489.836 115.156C488.372 115.156 487.201 115.644 486.152 116.694C485.102 117.743 484.614 118.914 484.614 120.379V182.044C484.614 183.509 485.102 184.68 486.152 185.729C487.201 186.779 488.372 187.267 489.836 187.267C491.301 187.267 492.472 186.779 493.521 185.729C494.571 184.68 495.059 183.509 495.059 182.044V120.379C495.059 118.914 494.571 117.743 493.521 116.694C492.472 115.644 491.301 115.156 489.836 115.156Z" fill="white"/>
<path d="M270.602 295.42C265.453 295.42 261.134 294.395 257.767 292.345C255.326 290.856 253.325 288.855 251.812 286.391C250.275 283.902 249.494 281.413 249.494 278.997C249.494 277.411 250.031 276.044 251.105 274.897C252.203 273.75 253.594 273.164 255.253 273.164C256.644 273.164 257.84 273.628 258.816 274.555C259.694 275.385 260.402 276.556 261.012 278.143C261.598 279.68 262.257 280.998 262.94 282.023C263.55 282.95 264.453 283.731 265.624 284.365C266.771 284.975 268.357 285.293 270.334 285.293C273.043 285.293 275.263 284.658 276.898 283.389C278.485 282.169 279.241 280.729 279.241 278.948C279.241 277.557 278.851 276.459 278.045 275.605C277.167 274.677 276.02 273.97 274.604 273.457C273.043 272.92 270.92 272.31 268.309 271.7C264.648 270.822 261.549 269.772 259.036 268.577C256.424 267.332 254.326 265.6 252.788 263.428C251.227 261.232 250.446 258.474 250.446 255.228C250.446 251.983 251.275 249.372 252.91 246.956C254.545 244.564 256.912 242.685 259.963 241.416C262.94 240.172 266.478 239.537 270.456 239.537C273.653 239.537 276.459 239.952 278.826 240.782C281.193 241.612 283.219 242.759 284.805 244.15C286.391 245.565 287.587 247.078 288.343 248.64C289.1 250.25 289.49 251.836 289.49 253.349C289.49 254.862 288.953 256.278 287.928 257.498C286.83 258.791 285.439 259.426 283.804 259.426C282.316 259.426 281.12 259.011 280.29 258.157C279.607 257.473 278.875 256.4 278.118 254.911C277.264 253.081 276.264 251.69 275.141 250.714C274.092 249.811 272.311 249.372 269.797 249.372C267.454 249.372 265.575 249.884 264.184 250.909C262.891 251.861 262.281 252.935 262.281 254.204C262.281 254.984 262.476 255.619 262.867 256.156C263.306 256.766 263.94 257.303 264.721 257.742C265.6 258.254 266.503 258.645 267.381 258.913C268.357 259.206 269.944 259.645 272.164 260.231C274.995 260.914 277.606 261.695 279.924 262.525C282.291 263.379 284.366 264.453 286.074 265.673C287.831 266.966 289.222 268.626 290.198 270.578C291.174 272.53 291.686 274.946 291.686 277.728C291.686 281.071 290.832 284.121 289.149 286.806C287.465 289.49 285 291.613 281.803 293.102C278.655 294.59 274.897 295.322 270.602 295.322V295.42Z" fill="white"/>
<path d="M303.034 295.42C301.301 295.42 299.861 294.761 298.763 293.468C297.714 292.247 297.202 290.515 297.202 288.343V246.614C297.202 244.394 297.714 242.661 298.739 241.465C299.813 240.196 301.252 239.537 303.034 239.537C304.815 239.537 306.255 240.172 307.353 241.416C308.427 242.612 308.964 244.369 308.964 246.614V288.343C308.964 290.588 308.427 292.345 307.329 293.541C306.231 294.785 304.766 295.42 303.034 295.42Z" fill="white"/>
<path d="M345.958 295.42C344.323 295.42 342.957 294.81 341.883 293.565C341.2 292.784 340.736 291.784 340.492 290.612C339.931 291.174 339.369 291.686 338.784 292.15C337.442 293.224 335.953 294.029 334.367 294.566C332.781 295.078 330.975 295.347 328.998 295.347C326.558 295.347 324.313 294.81 322.361 293.76C320.384 292.687 318.822 291.198 317.749 289.319C316.455 287.074 315.845 283.999 315.845 279.9V260.841C315.845 258.62 316.382 256.888 317.407 255.716C318.481 254.496 319.92 253.886 321.677 253.886C323.434 253.886 324.899 254.496 325.997 255.741C327.07 256.937 327.607 258.645 327.607 260.865V276.264C327.607 278.387 327.778 280.168 328.12 281.608C328.413 282.877 328.949 283.853 329.706 284.536C330.414 285.195 331.414 285.512 332.732 285.512C334.05 285.512 335.294 285.122 336.465 284.292C337.661 283.462 338.515 282.389 339.077 281.047C339.394 280.241 339.784 278.094 339.784 272.554V260.865C339.784 258.669 340.321 256.937 341.395 255.741C342.493 254.521 343.933 253.886 345.69 253.886C347.447 253.886 348.862 254.496 349.96 255.716C351.009 256.912 351.522 258.62 351.522 260.841V288.709C351.522 290.832 351.009 292.491 350.009 293.638C348.96 294.834 347.593 295.42 345.958 295.42Z" fill="white"/>
<path d="M375.168 309.695C371.825 309.695 368.799 309.207 366.139 308.231C363.431 307.231 361.332 305.913 359.819 304.327C358.233 302.643 357.452 300.837 357.452 298.958C357.452 297.445 357.965 296.176 358.989 295.2C359.99 294.249 361.21 293.76 362.625 293.76C364.358 293.76 365.895 294.541 367.164 296.079C367.677 296.713 368.189 297.348 368.702 298.007C369.165 298.568 369.678 299.056 370.239 299.446C370.752 299.812 371.41 300.081 372.167 300.276C372.972 300.471 373.924 300.569 375.022 300.569C377.218 300.569 378.927 300.276 380.073 299.666C381.147 299.105 381.879 298.348 382.318 297.348C382.807 296.225 383.075 295.005 383.173 293.76C383.221 292.931 383.27 291.833 383.295 290.417C382.343 291.345 381.318 292.15 380.22 292.76C378.17 293.931 375.705 294.541 372.899 294.541C369.531 294.541 366.554 293.638 364.016 291.857C361.503 290.1 359.551 287.587 358.209 284.439C356.891 281.339 356.232 277.728 356.232 273.701C356.232 270.7 356.647 267.918 357.428 265.502C358.233 263.037 359.404 260.914 360.942 259.182C362.455 257.449 364.236 256.131 366.237 255.253C368.238 254.374 370.434 253.935 372.801 253.935C375.632 253.935 378.121 254.521 380.244 255.643C381.562 256.351 382.807 257.327 384.002 258.523C384.222 257.376 384.661 256.424 385.32 255.668C386.345 254.472 387.687 253.862 389.322 253.862C392.177 253.862 393.446 255.229 394.007 256.375C394.691 257.766 395.032 259.645 395.032 262.135V290.076C395.032 293.37 394.691 296.25 393.983 298.665C393.275 301.155 392.104 303.253 390.518 304.888C388.932 306.523 386.833 307.768 384.295 308.549C381.83 309.305 378.756 309.695 375.144 309.695H375.168ZM375.632 263.477C373.338 263.477 371.581 264.355 370.19 266.137C368.751 267.991 368.043 270.749 368.043 274.311C368.043 277.874 368.775 280.632 370.239 282.389C371.654 284.121 373.436 284.951 375.705 284.951C377.023 284.951 378.243 284.585 379.439 283.853C380.61 283.121 381.586 281.974 382.367 280.461C383.148 278.924 383.539 276.971 383.539 274.726C383.539 271.09 382.782 268.26 381.294 266.307C379.854 264.428 377.999 263.501 375.657 263.501L375.632 263.477Z" fill="white"/>
<path d="M417.116 309.695C413.773 309.695 410.747 309.207 408.087 308.231C405.379 307.231 403.256 305.913 401.767 304.327C400.181 302.643 399.4 300.837 399.4 298.958C399.4 297.445 399.912 296.176 400.937 295.2C401.938 294.248 403.158 293.76 404.573 293.76C406.306 293.76 407.843 294.541 409.112 296.079C409.625 296.713 410.137 297.348 410.65 298.006C411.113 298.568 411.626 299.056 412.187 299.446C412.699 299.812 413.358 300.081 414.115 300.276C414.92 300.471 415.872 300.569 416.97 300.569C419.166 300.569 420.874 300.276 422.021 299.666C423.095 299.105 423.827 298.348 424.266 297.348C424.73 296.225 425.023 295.029 425.096 293.76C425.145 292.955 425.194 291.833 425.218 290.417C424.266 291.344 423.241 292.15 422.143 292.76C420.093 293.931 417.629 294.541 414.822 294.541C411.455 294.541 408.478 293.638 405.94 291.857C403.426 290.1 401.474 287.586 400.132 284.439C398.814 281.339 398.155 277.728 398.155 273.701C398.155 270.7 398.57 267.942 399.351 265.502C400.156 263.037 401.352 260.914 402.865 259.182C404.378 257.449 406.16 256.131 408.161 255.253C410.162 254.374 412.358 253.935 414.725 253.935C417.556 253.935 420.045 254.521 422.168 255.643C423.485 256.351 424.73 257.303 425.926 258.523C426.145 257.376 426.585 256.424 427.268 255.668C428.293 254.472 429.635 253.886 431.27 253.886C434.125 253.886 435.394 255.253 435.955 256.375C436.639 257.766 436.98 259.645 436.98 262.134V290.076C436.98 293.37 436.639 296.274 435.931 298.665C435.223 301.154 434.052 303.253 432.466 304.888C430.88 306.523 428.781 307.768 426.243 308.548C423.778 309.305 420.704 309.695 417.092 309.695H417.116ZM417.58 263.477C415.311 263.477 413.529 264.355 412.138 266.136C410.723 267.991 409.991 270.749 409.991 274.311C409.991 277.874 410.723 280.632 412.187 282.389C413.602 284.121 415.384 284.951 417.653 284.951C418.971 284.951 420.191 284.585 421.387 283.853C422.558 283.121 423.534 281.974 424.291 280.461C425.072 278.923 425.462 276.971 425.462 274.726C425.462 271.09 424.706 268.26 423.217 266.307C421.777 264.428 419.923 263.501 417.58 263.501V263.477Z" fill="white"/>
<path d="M460.651 295.42C454.355 295.42 449.353 293.516 445.814 289.758C442.276 286.025 440.495 280.9 440.495 274.58C440.495 271.627 440.934 268.821 441.788 266.283C442.666 263.696 443.935 261.451 445.619 259.596C447.327 257.717 449.426 256.278 451.866 255.277C454.307 254.301 457.015 253.789 459.968 253.789C463.824 253.789 467.191 254.643 469.973 256.351C472.755 258.059 474.878 260.28 476.269 262.988C477.66 265.673 478.343 268.43 478.343 271.237C478.343 274.043 477.44 276.068 475.683 277.02C474.146 277.85 472.121 278.24 469.436 278.24H452.501C452.647 279.729 453.013 281.095 453.599 282.267C454.331 283.731 455.283 284.829 456.454 285.537C457.65 286.269 458.919 286.635 460.383 286.635C461.383 286.635 462.286 286.513 463.092 286.269C463.897 286.025 464.678 285.659 465.434 285.146C466.24 284.609 466.996 284.024 467.679 283.414C468.411 282.755 469.339 281.876 470.486 280.778C471.242 280.119 472.194 279.802 473.39 279.802C474.658 279.802 475.708 280.192 476.538 280.924C477.392 281.705 477.831 282.779 477.831 284.121C477.831 285.219 477.465 286.415 476.684 287.782C475.952 289.075 474.854 290.319 473.414 291.466C471.999 292.613 470.168 293.589 468.045 294.322C465.922 295.078 463.433 295.444 460.7 295.444L460.651 295.42ZM466.776 270.309C466.459 267.967 465.751 266.185 464.653 264.965C463.384 263.574 461.774 262.915 459.675 262.915C457.699 262.915 456.112 263.598 454.868 264.989C453.77 266.21 453.013 267.991 452.623 270.309H466.776Z" fill="white"/>
<path d="M489.52 295.42C487.811 295.42 486.396 294.785 485.298 293.516C484.224 292.296 483.687 290.564 483.687 288.343V261.549C483.687 254.838 487.299 253.838 489.446 253.838C491.911 253.838 493.18 254.96 493.79 255.887C494.132 256.4 494.425 257.01 494.644 257.693C495.254 256.888 495.889 256.205 496.548 255.643C497.939 254.448 499.793 253.838 502.038 253.838C504.283 253.838 506.309 254.399 508.31 255.497C511.116 257.034 511.702 259.108 511.702 260.573C511.702 262.037 511.189 263.355 510.164 264.355C509.139 265.356 507.993 265.844 506.772 265.844C506.431 265.844 505.796 265.746 503.917 265.136C502.746 264.746 501.697 264.55 500.843 264.55C499.769 264.55 498.939 264.819 498.28 265.356C497.597 265.941 497.036 266.869 496.645 268.089C496.206 269.431 495.889 271.09 495.718 273.018C495.547 274.946 495.45 277.386 495.45 280.241V288.27C495.45 290.515 494.888 292.272 493.815 293.468C492.692 294.712 491.252 295.322 489.52 295.322V295.42Z" fill="white"/>
<path d="M527.49 295.42C523.976 295.42 520.926 294.858 518.388 293.736C515.801 292.589 513.874 291.125 512.605 289.368C511.311 287.586 510.677 285.732 510.677 283.877C510.677 282.486 511.165 281.291 512.117 280.314C513.093 279.314 514.313 278.826 515.753 278.826C517.046 278.826 518.095 279.192 518.852 279.9C519.462 280.485 520.048 281.291 520.584 282.291C521.414 283.804 522.439 284.951 523.586 285.683C524.708 286.391 526.319 286.757 528.369 286.757C529.979 286.757 531.273 286.391 532.249 285.707C533.542 284.78 533.542 283.999 533.542 283.755C533.542 282.486 533.127 281.632 532.249 281.095C531.126 280.388 529.174 279.704 526.465 279.021C523.195 278.191 520.511 277.289 518.437 276.361C516.265 275.385 514.484 274.067 513.166 272.432C511.775 270.749 511.092 268.65 511.092 266.21C511.092 264.062 511.726 261.988 512.971 260.085C514.215 258.181 516.021 256.644 518.413 255.546C520.731 254.448 523.562 253.886 526.807 253.886C529.296 253.886 531.59 254.155 533.615 254.692C535.665 255.253 537.398 256.009 538.789 256.937C540.204 257.888 541.302 258.986 542.059 260.182C542.864 261.427 543.255 262.696 543.255 263.94C543.255 265.38 542.767 266.576 541.815 267.527C540.863 268.455 539.545 268.943 537.91 268.943C536.666 268.943 535.568 268.552 534.689 267.82C533.957 267.186 533.103 266.283 532.2 265.087C531.59 264.257 530.858 263.623 530.053 263.135C529.296 262.696 528.198 262.452 526.783 262.452C525.367 262.452 524.172 262.744 523.269 263.355C522.244 264.013 522.146 264.672 522.146 265.112C522.146 265.746 522.39 266.234 522.903 266.649C523.61 267.186 524.586 267.674 525.807 268.04C527.173 268.455 529.077 268.967 531.492 269.577C534.47 270.334 536.934 271.237 538.862 272.31C540.863 273.408 542.4 274.751 543.45 276.264C544.524 277.85 545.085 279.656 545.085 281.657C545.085 284.536 544.377 287.05 543.011 289.148C541.62 291.247 539.57 292.857 536.885 293.907C534.299 294.932 531.151 295.469 527.515 295.469L527.49 295.42Z" fill="white"/>
</svg>
